<?xml version="1.0" encoding="utf-8"?>
<!-- Generator: Adobe Illustrator 15.0.0, SVG Export Plug-In . SVG Version: 6.00 Build 0)  -->
<!DOCTYPE svg PUBLIC "-//W3C//DTD SVG 1.1//EN" "http://www.w3.org/Graphics/SVG/1.1/DTD/svg11.dtd">
<svg version="1.1" xmlns="http://www.w3.org/2000/svg" xmlns:xlink="http://www.w3.org/1999/xlink" x="0px" y="0px" width="612px"
	 height="792px" viewBox="0 0 612 792" enable-background="new 0 0 612 792" xml:space="preserve">
<g id="back">
	<path stroke="#000000" stroke-miterlimit="10" d="M252.333,446.332l-12-10.334l1.333-14c0,0,1.333-3,2.333,0s2.333,11.5,2.333,11.5
		s0.989,4.803,3.333,5.5c0,0,4.945,5.912,8.294,6.107l-0.294-0.107l3.667,1.334l2.667,3.333h7c0,0,11.429-2.547,17-16.167
		c4.37-10.683,3.744-8.177,3.667-9.5l0,0h3.667v-30L293.5,392.5l-1.833-4.168c0,0-12.08-27.578-21.333-29.667
		c-8.98-2.028-13-2.076-18.667,0c0,0-15.333,1.857-15.333,28.333c0,1.667,0.428,1.655,0,1.667l-2.222,1.333
		c0,0-0.778,4.333-4.111-11.973c-1.621-7.93,2.221-16.263,4.667-20.36c2.338-3.917,15-12,33-8.333
		c15.894,3.238,20.907,34.185,23.907,29.158l0.062-0.465c0,0-0.969,4.64,3.698,4.64s2-2.32,2-2.32l0.759-20.347H306v18.027
		l-1.333,4.64h2.667h4.333c0,0-1.631,0.797,2.334-12.667c2.569-8.726,10.356-16.305,19.333-24c0,0,13.284-0.105,17.334-0.499
		c0,0,18.833,5.833,21.5,16.167c1.668,6.463-0.167,9.333-0.433,21.007h-1.401H369l-1.334-4.648l-0.666-4.36l-1.667-3.667l-2.333-3
		c0,0-2.666-11.667-19-9.667s-14.553,5.928-28.667,23.667c0,0-0.666,6.624-4.333,8.479s-2.334,3.023-2.334,3.023l-0.333,29.832H312
		v6.333h4.333l0.333,4.333c0,0,5.666,18.333,22,16s20.659-8.562,24-26.666c1.354-7.335,4,2.333,4,6.333c0,0,4,8.001-2,17.667
		s-11.667,14.666-16,14.666c0,0-21.666,9.667-34.333-16.333c-12.667-26-7.052-14.265-7.052-14.265L306,428.665v13l-8-0.667v-10
		l-2.667,0.334c0,0,3.667,12.667-16,29S266,452.516,265,462.757c0,0-0.688-14.425-13.021-16.425"/>
	<path stroke="#000000" stroke-miterlimit="10" d="M226,318.25c0,0,4.75,11,13,13.75s11-8.25,8-13.75s-2.5-5.25-4.25-5
		s0.75-4.25,0.75-4.25l6,3.25c0,0,7.25,6.5,2,19.25s-7,8.5-8,8.25s-11,0.627-21-14.937S219,298.75,219,298.75
		c1.25,0-0.071-8.678,25.75-9.25c10.753-0.238,42.5,36.75,49.75,46c0,0,5.908,13.501,4.75,19s0.636,1.5,3.318,2
		s-0.318,3.25,2.682,0.5S305,344,306,343.5s10-23.25,17.5-29.25s26.5-22.752,39.5-24.751s19.25,1.501,20.5,6.001
		s7.25,16.378-2.5,28.064s-13.25,14.686-18.5,14.186s-10.5-0.25-12.5-11.5s6.5-15.25,5.5-15.25s6.5-2.5,6.75,3.5s-11.5-2.25-8,11.5
		s8.75,4.5,7.5,5.5c0,0,6.75,5.25,19.25-15.25c0,0,4.75-10-2-17.25s-10.75-6.5-26,0.5s-34.25,31.5-35,34s-3.666-3.665-8.5,22.75
		c-4.833,26.415,0.5,25.08,0.5,26.415s-16.5,0-16.5,0s5-28.665,0.25-34.915s3.091-12.161-35-43.5
		c-14.597-12.009-18.342-12.711-22.342-9.711c0,0-7.96-3.952-13.908,7.211c-5.993,11.25,3.5,16.5,3.75,17.75"/>
</g>
<g id="water">
	<circle fill="#9CD1F2" stroke="#000000" stroke-miterlimit="10" cx="301.75" cy="392.5" r="120.666"/>
</g>
<g id="waterhole">
	<ellipse fill="#FFFFFF" cx="293.166" cy="389.423" rx="92.5" ry="102.091"/>
</g>
<g id="wings">
	<path fill="#81C341" d="M326.333,366.915c-21.333,22.509-26.597,60.114,2.5,72.439c12.329,5.223,28.431,1.461,26.833-15.834
		c-1.178-12.747-21.006-19.052-27.666-23c49.36,8.238,34.876-54.981,2-34.833L326.333,366.915z"/>
	<path fill="#81C341" d="M276.75,370.702c21.333,22.509,26.597,60.114-2.5,72.439c-12.329,5.223-28.431,1.461-26.833-15.834
		c1.178-12.747,21.006-19.052,27.666-23c-49.36,8.238-34.876-54.981-2-34.833L276.75,370.702z"/>
</g>
<g id="wingholes">
	<path fill="#FFFFFF" d="M273.666,390.334C262.152,344.69,225.118,405.082,273.666,390.334L273.666,390.334z"/>
	<path fill="#FFFFFF" d="M277.465,416.997C230.636,412.205,274.719,467.662,277.465,416.997L277.465,416.997z"/>
	<path fill="#FFFFFF" d="M329.527,390.978C376.356,395.77,332.273,340.313,329.527,390.978L329.527,390.978z"/>
	<path fill="#FFFFFF" d="M324.739,413.022C319.947,459.852,375.404,415.769,324.739,413.022L324.739,413.022z"/>
</g>
<g id="body">
	<path d="M243.783,309.41c43.899,32.782-57.158,36.222-24.534-10.384c26.335-37.622,75.382,43.741,82.318,57
		c2.464-25.279,60.308-96.523,82.433-57c23.679,42.3-59.744,46.881-26,13c-11.75,45.615,40.128-1.223,15.5-16
		c-27.011-16.207-55.536,38.718-65.5,53c-11,15.766-2,16.463-18-7c-9.455-13.865-29.208-50.802-52.5-45.5
		C192.855,306.687,261.588,356.11,243.783,309.41L243.783,309.41z"/>
	<path d="M294.448,359.876c1.177,8.784,2.206,12.807,0,21.316c-26.63-64.85-91.02-7.441-55.283,13.833
		c-9.308-37.27,26.034-37.243,42.833-14c15.754,21.797,11.353,76.738-27.667,64.167c-9.513-3.064-9.878-24.674-8.667-24.5
		c-15.656-2.244-4.197,18.136,1.333,23.667c18.899,18.898,45.662,28.559,47.333-11.667c0.91,2.325,3.181,3.987,3.5,10.833
		c2.389-0.111,4.778-0.222,7.167-0.333c0.071-2.926-1.101-7.955,0-10.5c21.973,48.389,84.131,13.959,55.666-12.333
		c0.79,45.677-67.142,18.443-47.166-33.167c14.844-38.352,53.99-31.012,52.332,7.5c16.341-18.428,7.806-52.069-19.5-52.167
		c-20.858-0.074-32.84,28.508-41.332,39.5c2.129-8.816-0.217-14.425,1.832-23.333C304.375,358.466,295.093,359.758,294.448,359.876
		L294.448,359.876z"/>
	<polyline points="294.425,359.125 293.166,356.875 308.657,355.125 306.832,358.692 294.522,360.423 	"/>
</g>
<g id="leaf">
	<path fill="#8CE53E" stroke="#000000" stroke-miterlimit="10" d="M332.088,515.184c0,0,7.627,5.264-52.426,3.314l-8.587,0.2
		c-0.005-0.329,3.817-20.388-2.144-34.894c-13.183-32.078-24.757-38.987-24.757-38.987c-11.201-11.895-51.313-35.163-51.313-35.163
		l-3.268-0.9c-7.992-1.56-17.739-14.035-17.739-14.035s-31.774,44.116-2.534,90.84c0,0,28.851,39.376,62.185,42.495
		c20.231,1.893,17.934,0.778,30.215,1.559c0,0,16.18,8.576,71.151,4.872c54.973-3.704,95.129-57.896,102.73-84.213
		c7.604-26.316,17.738-41.731,9.551-87.437c-8.188-45.706-15.41-32.65-18.324-43.058c-1.363-4.874-2.533,2.019-1.754,3.974
		c0,0,8.188,7.219,7.408,13.651c-0.781,6.433,4.287,13.45,4.287,13.45l3.705,22.809v30.09l-0.586,9.676l-2.729,8.188
		c0,0,1.17,24.951-21.246,49.318c-22.418,24.367-15.594,20.078-26.51,29.045c-10.918,8.967-30.605,23.587-47.76,24.757
		s-24.135,3.653-19.104,0.585c1.404-0.856,5.848-0.78,5.848-1.56s20.078-1.948,23.977-6.433c0,0,6.984-0.524,28.07-14.229
		c7.797-5.067,37.232-35.55,45.031-56.763c0,0,11.107-17.469,9.742-55.5c-1.363-38.031-2.729-27.167-2.729-27.167l-1.17,1.222
		c0,0-0.389,3.119-0.975,11.695c-0.584,8.578-0.195,15.596-0.195,15.596l-0.779,13.646c0,0-3.508,24.335-11.305,37.509
		S398.08,504.239,332.088,515.184"/>
	<path fill="#8CE53E" stroke="#000000" stroke-miterlimit="10" d="M195.714,324.227c22.03-33.139,25.157-29.941,40.071-40.242
		c3.47-2.396,9.552-8.188,39.377-15.985s55.752-1.169,55.752-1.169l9.357,2.339l12.279,5.848l8.383,3.509l10.916,3.314l8.578,5.16
		l6.627,2.442c0,0,18.908,7.212-11.059-9.552c-29.969-16.764-45.666-23.977-47.811-20.858s-44.787,0.58-46.785,0.39
		c-1.962-0.187,17.349-1.365,25.537-2.145s5.459-0.39,12.477-1.364s4.678-0.195,7.211-0.195c2.535,0,5.836-0.967-7.992-2.729
		c-14.539-1.854-32.943,0.78-50.098,3.119s-38.597,17.349-48.344,24.757S196.214,302.7,196.214,302.7l-1.949,1.949l-0.585-1.17
		l9.552-12.281c0,0,6.823-8.188,34.893-25.537s58.091-17.544,58.091-17.544l2.729-0.975v-1.365c0,0-11.696-2.729-37.818,4.289
		s-58.09,33.919-58.09,33.919s-12.281,8.187-24.562,28.266s-15.601,51.624-15.601,51.624l-2.139,52.126l11.116-21.282l0.278-5.7
		l2.021-10.088C174.152,378.931,177.5,351.625,195.714,324.227z"/>
	<path fill="none" stroke="#000000" stroke-miterlimit="10" d="M219.333,448.757c0,0,9.658,16.312,14.658,46.979"/>
	<path fill="none" stroke="#000000" stroke-miterlimit="10" d="M173.666,458.59c2,13.167,23.334,20.5,35.667,19.5"/>
	<path fill="none" stroke="#000000" stroke-miterlimit="10" d="M233.991,495.736c0,0-10.325,4.501-37.325,0.761"/>
	<ellipse fill="#E9F4FF" stroke="#000000" stroke-miterlimit="10" cx="224.666" cy="511.758" rx="10.667" ry="8.666"/>
	<ellipse fill="#E2EDF7" stroke="#000000" stroke-miterlimit="10" cx="182.853" cy="489.424" rx="5.813" ry="5.333"/>
	<ellipse fill="#F5F9FF" stroke="#E2EDF7" stroke-miterlimit="10" cx="225.277" cy="507.446" rx="3.163" ry="1.979"/>
	<ellipse fill="#F5F9FF" stroke="#E2EDF7" stroke-miterlimit="10" cx="182.853" cy="486.48" rx="1.971" ry="1.233"/>
	<path fill="none" stroke="#000000" stroke-miterlimit="10" d="M320.945,526.595c0,0-27.07-0.595-49.871-7.896
		c-12.024-3.851-39.075-23.941-61.742-40.608c-19.752-14.524-23-31-28.667-45.666s-3-31.667-3-31.667"/>
</g>
</svg>
