<?xml version="1.0" encoding="utf-8"?>
<!-- Generator: Adobe Illustrator 17.0.0, SVG Export Plug-In . SVG Version: 6.00 Build 0)  -->
<!DOCTYPE svg PUBLIC "-//W3C//DTD SVG 1.1//EN" "http://www.w3.org/Graphics/SVG/1.1/DTD/svg11.dtd">
<svg version="1.1" xmlns="http://www.w3.org/2000/svg" xmlns:xlink="http://www.w3.org/1999/xlink" x="0px" y="0px" width="227px"
	 height="226px" viewBox="0 0 227 226" enable-background="new 0 0 227 226" xml:space="preserve">
<g id="Capa_2" display="none">
</g>
<g id="Capa_3">
	<g>
		
			<radialGradient id="SVGID_1_" cx="128.0297" cy="81.5434" r="86.407" gradientTransform="matrix(0.9765 0.0051 0.0051 0.9856 -1.668 4.6335)" gradientUnits="userSpaceOnUse">
			<stop  offset="0" style="stop-color:#FFFFFF"/>
			<stop  offset="1" style="stop-color:#00658F"/>
		</radialGradient>
		<path fill="url(#SVGID_1_)" d="M51.479,140.985c-14.621-32.661,1.864-71.822,36.819-87.47s75.145-1.856,89.765,30.804
			s-1.864,71.822-36.819,87.47S66.099,173.645,51.479,140.985z"/>
		<path fill="#57C1E8" d="M51.207,141.097c0,0-0.156-0.381-0.46-1.118c-0.293-0.743-0.788-1.814-1.274-3.296
			c-1.057-2.92-2.345-7.306-3.088-13.052c-0.222-1.431-0.3-2.955-0.431-4.549c-0.043-1.598-0.13-3.271-0.049-5.015
			c0.074-3.487,0.413-7.263,1.192-11.23c1.55-7.922,4.844-16.632,10.39-24.968c2.78-4.153,6.089-8.232,10.009-11.964
			c3.925-3.723,8.396-7.148,13.345-10.107c1.238-0.737,2.518-1.423,3.802-2.121c1.326-0.628,2.594-1.339,3.994-1.911
			c1.328-0.577,2.665-1.158,4.109-1.67c1.415-0.56,2.852-1.008,4.297-1.469c5.794-1.805,11.959-2.877,18.27-3.208
			c12.615-0.631,25.931,2.129,37.638,8.637c2.909,1.643,5.743,3.465,8.406,5.539c2.652,2.085,5.173,4.359,7.507,6.83
			c2.305,2.497,4.43,5.169,6.354,7.99c0.907,1.445,1.858,2.867,2.658,4.377c0.415,0.747,0.849,1.484,1.209,2.26l1.154,2.361
			c1.312,2.919,2.573,6.325,3.487,9.576c0.882,3.308,1.521,6.677,1.909,10.073c0.351,3.4,0.423,6.817,0.274,10.216
			c-0.163,3.4-0.631,6.767-1.288,10.082c-2.692,13.279-9.462,25.339-18.367,34.616c-8.975,9.262-20.016,15.749-31.22,19.244
			c-5.606,1.771-11.263,2.796-16.76,3.19c-5.501,0.405-10.84,0.05-15.86-0.719c-10.06-1.57-18.812-5.127-25.743-9.434
			c-3.476-2.15-6.501-4.494-9.128-6.829c-1.344-1.134-2.522-2.344-3.671-3.468c-1.088-1.187-2.157-2.285-3.062-3.427
			c-3.726-4.47-6.095-8.395-7.521-11.149c-0.758-1.356-1.216-2.457-1.564-3.179c-0.338-0.727-0.513-1.102-0.513-1.102
			L51.207,141.097z M51.747,140.864c0,0,0.182,0.367,0.535,1.078c0.363,0.706,0.841,1.784,1.624,3.106
			c1.497,2.668,3.861,6.547,7.727,10.766c3.802,4.251,9.179,8.784,16.155,12.498c6.952,3.718,15.544,6.542,25.121,7.372
			c4.782,0.433,9.79,0.33,14.897-0.25c5.104-0.634,10.297-1.834,15.449-3.588c1.284-0.447,2.501-0.933,3.788-1.433
			c0.657-0.287,1.316-0.575,1.978-0.864l0.993-0.434l0.881-0.427c1.258-0.604,2.523-1.211,3.75-1.911
			c1.253-0.651,2.458-1.4,3.674-2.142c4.834-3.018,9.408-6.679,13.525-10.919c8.286-8.421,14.577-19.414,17.387-31.524
			c0.672-3.029,1.178-6.113,1.4-9.234c0.205-3.12,0.194-6.264-0.065-9.398c-0.298-3.13-0.826-6.243-1.578-9.311
			c-0.823-3.098-1.779-5.906-3.099-9.026l-0.986-2.091c-0.32-0.726-0.713-1.414-1.085-2.113c-0.717-1.415-1.579-2.744-2.396-4.102
			c-1.743-2.645-3.674-5.161-5.78-7.523c-2.134-2.336-4.45-4.496-6.896-6.488c-2.457-1.981-5.085-3.732-7.791-5.323
			c-10.894-6.3-23.471-9.154-35.508-8.752c-6.021,0.216-11.934,1.138-17.517,2.776c-1.394,0.419-2.785,0.828-4.113,1.329
			c-1.337,0.444-2.69,1.004-4.035,1.562c-1.298,0.507-2.581,1.161-3.861,1.728c-1.253,0.637-2.505,1.263-3.718,1.939
			c-4.847,2.717-9.262,5.902-13.166,9.401c-3.881,3.524-7.276,7.33-10.129,11.289c-2.854,3.957-5.187,8.05-6.997,12.129
			c-1.799,4.085-3.092,8.143-3.96,12.034c-1.736,7.793-1.8,14.87-1.057,20.551c0.681,5.705,2.06,10.047,3.1,12.919
			c0.485,1.451,0.992,2.53,1.29,3.269c0.309,0.735,0.468,1.115,0.468,1.115L51.747,140.864z"/>
	</g>
	<g>
		<path fill="#FFFFFF" d="M137.359,98.756c-3.815,0-11.256-0.934-18.223-7.189c-11.318-10.165-7.933-31.872-7.897-32.09
			c0.103-0.869,0.397-1.688,0.657-2.409c0.403-1.117,0.721-2,0.183-2.767c-0.169-0.24-0.569-0.646-1.343-0.646
			c-0.246,0-0.521,0.041-0.842,0.124c-0.036,0.01-0.078,0.014-0.126,0.014c-0.414,0-0.98-0.28-1.538-0.654
			c2.653-0.714,6.867-2.299,6.867-3.688c0-0.585-0.451-1.207-1.287-1.207c-0.209,0-0.53,0.029-1.324,0.253
			c-0.158,0.045-0.329,0.067-0.509,0.067c-1.438,0-3.18-1.297-4.565-2.667c0.187,0.012,0.379,0.019,0.576,0.019
			c2.935,0,6.762-1.338,10.462-2.632c1.938-0.678,3.942-1.378,5.742-1.858c1.307-0.349,3.425-0.764,6.093-0.764
			c5.543,0,15.951,1.917,23.38,14.757c9.257,15.998-5.481,38.275-7.192,40.763C145.736,97.25,142.423,98.756,137.359,98.756z"/>
		<path fill="#57C1E8" d="M130.286,41.813c6.468,0,15.601,2.461,22.382,14.182c3.632,6.278,3.831,14.347,0.59,23.982
			c-2.698,8.023-6.916,14.361-7.734,15.55c-0.42,0.611-3.366,2.076-8.164,2.076c-3.651,0-10.772-0.896-17.453-6.894
			c-10.842-9.736-7.564-30.836-7.53-31.046l0.009-0.053l0.006-0.054c0.079-0.685,0.35-1.436,0.589-2.099
			c0.433-1.201,0.924-2.563,0.041-3.819c-0.187-0.266-0.419-0.491-0.684-0.668c2.7-1.15,3.912-1.986,3.912-3.52
			c0-0.944-0.565-1.793-1.438-2.163c-0.308-0.131-0.645-0.197-1-0.197c-0.413,0-0.887,0.086-1.636,0.297
			c-0.058,0.016-0.122,0.024-0.198,0.024c-0.457,0-1.002-0.219-1.576-0.568c2.618-0.441,5.56-1.47,8.428-2.473
			c1.918-0.67,3.901-1.364,5.66-1.833C125.73,42.208,127.743,41.813,130.286,41.813 M130.286,39.509
			c-2.469,0-4.663,0.342-6.39,0.803c-5.24,1.397-11.684,4.451-15.908,4.451c-1.347,0-2.468-0.31-3.253-1.084
			c-0.436-0.43-0.691-0.614-0.796-0.614c-0.629,0,4.184,6.652,8.038,6.652c0.28,0,0.554-0.035,0.822-0.11
			c0.521-0.146,0.846-0.21,1.011-0.21c1.13,0-5.172,2.976-7.516,2.976c-0.322,0-0.569-0.056-0.712-0.183
			c-0.159-0.141-0.246-0.203-0.273-0.203c-0.188,0,2.522,2.961,4.46,2.961c0.143,0,0.282-0.016,0.416-0.051
			c0.226-0.059,0.408-0.087,0.552-0.087c1.257,0-0.361,2.13-0.634,4.483c0,0-3.669,22.416,8.265,33.133
			c6.277,5.637,13.358,7.484,18.992,7.484c5.077,0,8.978-1.499,10.062-3.075c2.288-3.325,16.685-25.668,7.241-41.993
			C147.578,42.596,137.698,39.509,130.286,39.509L130.286,39.509z"/>
	</g>
	<g>
		<path fill="#FFFFFF" d="M178.797,106.019c-3.792,0-6.877-3.085-6.877-6.877s3.085-6.878,6.877-6.878s6.878,3.086,6.878,6.878
			S182.589,106.019,178.797,106.019z"/>
		<path fill="#B3B3B3" d="M178.797,93.704c3.003,0,5.437,2.434,5.437,5.437s-2.434,5.437-5.437,5.437s-5.437-2.434-5.437-5.437
			S175.794,93.704,178.797,93.704 M178.797,90.823c-4.586,0-8.318,3.731-8.318,8.318c0,4.586,3.731,8.318,8.318,8.318
			s8.318-3.731,8.318-8.318C187.115,94.555,183.384,90.823,178.797,90.823L178.797,90.823z"/>
	</g>
	<g>
		<path fill="#FFFFFF" d="M163.243,115.236c-3.792,0-6.878-3.086-6.878-6.878s3.086-6.878,6.878-6.878s6.878,3.086,6.878,6.878
			S167.035,115.236,163.243,115.236z"/>
		<path fill="#B3B3B3" d="M163.243,102.921c3.003,0,5.437,2.434,5.437,5.437s-2.434,5.437-5.437,5.437s-5.437-2.434-5.437-5.437
			S160.24,102.921,163.243,102.921 M163.243,100.041c-4.586,0-8.318,3.731-8.318,8.318c0,4.586,3.731,8.318,8.318,8.318
			s8.318-3.731,8.318-8.318C171.561,103.772,167.829,100.041,163.243,100.041L163.243,100.041z"/>
	</g>
	<g>
		<path fill="#FFFFFF" d="M178.797,123.878c-3.792,0-6.877-3.086-6.877-6.878s3.085-6.878,6.877-6.878s6.878,3.086,6.878,6.878
			S182.589,123.878,178.797,123.878z"/>
		<path fill="#B3B3B3" d="M178.797,111.563c3.003,0,5.437,2.434,5.437,5.437s-2.434,5.437-5.437,5.437s-5.437-2.434-5.437-5.437
			S175.794,111.563,178.797,111.563 M178.797,108.682c-4.586,0-8.318,3.731-8.318,8.318c0,4.586,3.731,8.318,8.318,8.318
			s8.318-3.731,8.318-8.318C187.115,112.414,183.384,108.682,178.797,108.682L178.797,108.682z"/>
	</g>
	<path fill="none" d="M111.191,151.74c0,0,3.529,6.121,4.681,7.465c1.152,1.344,6.757,8.437,7.717,10.934
		c0.96,2.496,3.475,5.179,2.514,6.715c-0.96,1.536-4.384,2.877-7.276,3.069c-2.892,0.192-6.728,2.495-4.616,2.879
		c2.112,0.384,9.028,1.535,10.18-0.001c1.152-1.536,1.945-1.341,1.945-1.341l1.129,1.539h2.112c0,0,3.072,1.101,3.072,3.213
		s3.072,5.399,5.953,5.783s3.841,0.875,3.841,0.875s1.728-2.539,0-4.267c-1.728-1.728-8.257-6.166-8.833-8.471
		c-0.576-2.304-7.489-25.743-7.489-25.743s5.569,0.955,7.297,1.915s4.417,2.494,4.417,2.494s-1.728-11.907-5.185-16.132
		s-12.098-17.283-12.482-20.548c-0.384-3.264-0.192-7.489-0.192-7.489s6.337,4.609,9.793,7.105c3.457,2.496,6.913,5.377,6.913,5.377
		s2.304,5.569,6.529,5.953c4.225,0.384,4.225-3.265,4.225-3.265s1.152-4.417,2.112-4.993s4.609,2.112,7.873,1.536
		s8.065-1.92,9.986-0.576c1.92,1.344,3.072-2.688,1.536-3.264c-1.536-0.576-6.337,0.192-8.065,0.576
		c-1.728,0.384-4.033-6.337-8.065-5.953c-4.033,0.384-6.913,3.072-8.257,3.841c-1.344,0.768-4.109,1.728-4.109,1.728
		s-0.5-0.768-1.46-0.576s-1.92,0.576-1.92,0.576s-9.217-7.873-10.562-9.601c-1.344-1.728-3.577-5.569-3.577-5.569
		s0.072-0.192,0.072-1.152s0-0.96,0-0.96l2.281-1.466c0,0-4.804-4.295-6.849-6.215c-2.045-1.92-4.475-4.033-4.475-4.033
		l-0.351,6.145c0,0-8.817-12.098-11.889-16.13c-3.072-4.033-9.017-9.601-9.017-9.601s1.156-1.92,0.004-3.072
		c-1.152-1.152-1.726,0-1.726,0s-8.448-8.257-10.753-10.178c-2.304-1.92-6.528-4.993-6.528-4.993s0.192-2.112,0-3.649
		c-0.192-1.536-0.96-4.609-1.728-4.609c-0.768,0-3.072,1.152-3.072,1.152l-1.152-6.529c0,0,2.112-1.152,2.112-3.264
		s-4.609-2.304-6.721-2.304c-2.112,0-4.993,0.96-4.993,2.112c0,1.152,1.92,3.072,1.92,3.072l-0.384,4.609c0,0-3.841-1.152-4.033,0
		c-0.384,2.304,3.264,3.264,3.264,3.264s-3.293,0.192-3.293,1.344c0,1.152,1.18,2.304,1.18,2.304s-0.96,1.344-0.384,2.304
		c0.576,0.96,2.496,0.96,2.496,0.96s-1.344,0.768-1.344,1.728c0,0.96-0.768,2.304-0.768,2.304s-6.721,8.065-6.721,12.29
		s6.34,5.528,15.554,5.761c22.146,0.559,10.37-13.25,8.833-14.978s-3.072-4.609-3.072-4.609s6.913,5.377,9.217,10.178
		c2.304,4.801,3.072,8.065,3.072,8.065s-1.344,2.688,0,2.88c1.344,0.192,6.721-3.841,6.721-3.841s4.417,4.993,4.417,5.953
		s-0.192,1.92,0.96,2.496s2.304,0.576,3.072,1.344c0.768,0.768,11.466,14.594,11.014,16.514s-8.901,18.627-9.285,36.678
		s3.264,16.707,3.264,16.707l0.384-3.649C104.23,152.46,108.358,151.596,111.191,151.74z"/>
	<g>
		<path fill="#FFFFFF" d="M142.05,191.739c-0.642-0.209-1.701-0.479-3.333-0.697c-2.58-0.345-5.203-3.473-5.203-5.024
			c0-2.655-3.453-4.016-3.601-4.077l-0.161,0.06h-1.885l-1.129-2h-0.403c-0.287,0-1.326,0.338-2.636,2.083
			c-0.003,0.004-0.348,0.531-2.507,0.531c-2.003,0-4.523-0.314-6.172-0.595c0.838-0.524,2.396-1.161,3.863-1.257
			c2.965-0.197,6.749-1.538,7.951-3.462c0.911-1.456-0.104-3.195-1.179-5.044c-0.472-0.811-0.959-1.646-1.261-2.43
			c-1.096-2.847-7.209-10.414-7.868-11.184c-0.902-1.052-3.618-5.65-4.588-7.333l-0.235-0.407l-0.47-0.024
			c-0.232-0.012-0.474-0.017-0.72-0.017c-2.826,0-6.315,0.724-6.462,0.755l-0.617,0.129l-0.31,2.944
			c-0.731-1.181-1.905-4.728-1.681-15.267c0.311-14.641,5.903-28.187,8.292-33.972c0.59-1.427,0.877-2.131,0.97-2.526
			c0.634-2.691-11.119-17.2-11.243-17.324c-0.618-0.617-1.368-0.845-2.093-1.064c-0.401-0.121-0.815-0.246-1.204-0.44
			c-0.472-0.236-0.512-0.449-0.489-1.341l0.007-0.384c0-0.854-1.56-3.05-4.634-6.524l-0.528-0.597l-0.638,0.478
			c-2.217,1.662-5.004,3.434-5.938,3.651c0.018-0.357,0.234-1.063,0.509-1.613l0.141-0.28l-0.072-0.305
			c-0.032-0.137-0.816-3.411-3.134-8.241c-2.366-4.928-9.178-10.261-9.467-10.485l-3.201-2.49l1.908,3.578
			c0.064,0.122,1.603,2.992,3.189,4.777c0.938,1.055,5.537,6.495,3.957,10.014c-1.04,2.317-4.798,3.542-10.866,3.542
			c-0.405,0-0.826-0.005-1.257-0.017c-10.037-0.253-14.712-1.809-14.712-4.896c0-3.206,4.707-9.56,6.521-11.737l0.049-0.058
			l0.037-0.066c0.091-0.158,0.882-1.576,0.882-2.732c0-0.275,0.547-0.658,0.909-0.865L62.165,56h-3.254
			c-0.586,0-1.55-0.311-1.756-0.653c-0.197-0.328,0.13-1.105,0.349-1.418l0.422-0.63l-0.523-0.53
			c-0.226-0.223-0.852-0.977-0.915-1.595c0.307-0.247,1.453-0.524,2.475-0.584l5.355-0.314l-5.185-1.386
			c-0.027-0.008-2.589-0.731-2.648-2.061c0.069-0.01,0.165-0.018,0.293-0.018c0.876,0,2.212,0.344,2.653,0.476l1.021,0.306
			l0.506-6.069l-0.283-0.283c-0.788-0.791-1.667-1.996-1.667-2.462c0.166-0.394,2.145-1.248,4.129-1.248
			c4.023,0,5.856,0.746,5.856,1.439c0,1.556-1.646,2.497-1.662,2.506l-0.545,0.298l1.462,8.281l1.036-0.519
			c0.949-0.475,2.001-0.904,2.487-1.026c0.347,0.545,0.88,2.307,1.069,3.817c0.178,1.423-0.002,3.442-0.004,3.463l-0.045,0.488
			l0.396,0.289c0.042,0.03,4.229,3.078,6.485,4.958c2.251,1.876,10.617,10.05,10.702,10.132l0.848,0.828l0.529-1.061
			c0.003-0.005,0.009-0.007,0.017-0.007c0.044,0,0.161,0.066,0.326,0.232c0.646,0.646-0.126,2.005-0.134,2.019l-0.352,0.597
			l0.503,0.477c0.06,0.055,5.932,5.567,8.925,9.494c3.032,3.979,11.798,15.995,11.886,16.115l1.418,1.944l0.404-6.791
			c0.887,0.78,2.084,1.849,3.155,2.855c1.518,1.426,4.42,4.178,5.907,5.495L122,104.955v1.418c0,0.361,0.157,0.562,0.136,0.655
			l-0.251,0.347l0.359,0.566c0.087,0.16,2.185,3.922,3.555,5.683c1.383,1.777,10.314,9.404,10.693,9.729l0.402,0.339l0.488-0.193
			c0.009-0.004,0.904-0.357,1.772-0.531c0.046-0.01,0.092-0.015,0.134-0.015c0.267,0,0.432,0.213,0.434,0.215l0.368,0.566
			l0.639-0.222c0.116-0.04,2.856-0.995,4.254-1.794c0.304-0.173,0.682-0.438,1.129-0.752c1.526-1.074,3.833-2.698,6.781-2.979
			c0.084-0.008,0.168-0.012,0.25-0.012c1.809,0,3.348,1.963,4.585,3.541c1.07,1.365,1.916,2.443,3.003,2.443
			c0.112,0,0.225-0.012,0.333-0.036c1.118-0.249,4.095-0.763,6.156-0.763c0.881,0,1.267,0.095,1.418,0.152
			c0.089,0.033,0.211,0.375,0.118,0.885c-0.106,0.588-0.424,0.979-0.588,0.979c-0.03,0-0.117-0.011-0.268-0.116
			c-0.705-0.494-1.689-0.734-3.009-0.734c-1.759,0-3.89,0.43-5.771,0.809c-0.648,0.131-1.274,0.257-1.852,0.359
			c-0.256,0.045-0.53,0.067-0.814,0.067c-1.442,0-2.976-0.581-4.208-1.048c-0.96-0.364-1.719-0.651-2.344-0.651
			c-0.306,0-0.575,0.068-0.801,0.204c-1.1,0.659-1.827,3.739-2.29,5.517L147,129.69v0.11c0,0.4-0.381,2.429-2.972,2.429
			c-0.166,0-0.448-0.008-0.631-0.024c-3.647-0.332-5.842-5.373-5.863-5.424l-0.108-0.196l-0.177-0.137
			c-0.034-0.029-3.526-2.928-6.967-5.413c-3.456-2.496-9.794-7.103-9.795-7.104l-1.3-0.944l-0.073,1.604
			c-0.008,0.176-0.191,4.333,0.197,7.629c0.421,3.578,9.312,16.888,12.671,20.993c2.49,3.044,4.079,10.506,4.701,13.934
			c-0.887-0.503-1.984-1.122-2.844-1.601c-1.805-1.002-6.985-1.913-7.57-2.014l-1.368-0.235l0.393,1.331
			c0.069,0.234,6.915,23.441,7.48,25.702c0.438,1.752,3.105,3.998,6.547,6.752c1.086,0.869,2.024,1.62,2.513,2.108
			C142.624,189.982,142.344,191.072,142.05,191.739z"/>
		<path fill="#57C1E8" d="M63.135,38.395c3.213,0,4.595,0.481,4.983,0.741c-0.117,0.949-1.202,1.583-1.202,1.583l0,0l-1.09,0.595
			l0.216,1.223l1.152,6.529l0.208,1.177l-6.164-1.675l0.163-1.962l0.384-4.609l0.065-0.798l-0.563-0.566
			c-0.476-0.478-0.971-1.107-1.235-1.545C60.666,38.771,61.903,38.395,63.135,38.395 M71.305,49.579
			c0.261,0.731,0.557,1.897,0.677,2.856c0.166,1.328-0.005,3.259-0.006,3.278l-0.088,0.977l0.793,0.577
			c0.042,0.03,4.205,3.061,6.439,4.923c2.226,1.855,10.568,10.004,10.652,10.086l1.273,1.244l-0.362,0.602l-0.039-0.044
			l-1.275,0.956c-1.335,1.001-2.779,1.969-3.898,2.634l0.039-0.078l-0.143-0.609c-0.033-0.141-0.838-3.504-3.197-8.417
			C79.716,63.455,72.749,58,72.454,57.77l-6.404-4.981l3.818,7.159c0.067,0.125,1.652,3.083,3.306,4.943
			c2.611,2.937,4.803,6.886,3.815,9.086c-0.878,1.955-4.458,3.032-10.079,3.032c-0.398,0-0.811-0.005-1.234-0.016
			c-9.203-0.232-13.87-1.589-13.87-4.033c0-2.617,3.877-8.248,6.321-11.184l0.097-0.117l0.075-0.132
			c0.159-0.279,0.928-1.686,0.992-2.992c0.097-0.119,0.312-0.299,0.478-0.398l5.519-3.16l-6.367-0.069
			c-0.296-0.003-0.668-0.065-0.909-0.142c0.049-0.132,0.124-0.286,0.195-0.39l0.861-1.206l-1.061-1.035
			c-0.125-0.122-0.266-0.3-0.386-0.48c0.409-0.097,0.935-0.179,1.392-0.207l8.516-0.498l0.07,0.394l0.902-0.451l1.075-0.063
			l-0.615-0.167l0.709-0.354C70.219,50.035,70.828,49.766,71.305,49.579 M93.106,76.898c1.952,1.91,5.253,5.25,7.244,7.863
			c3.027,3.972,11.787,15.981,11.875,16.102l2.835,3.887l0.286-4.803l0.156-2.612c0.592,0.532,1.218,1.103,1.807,1.656
			c1.297,1.218,3.672,3.342,5.282,4.774l-0.077,0.218L122,104.497v0.916v0.96c0,0.102-0.247,0.185-0.251,0.251l-0.719,0.597
			l0.565,1.138c0.089,0.162,2.164,3.981,3.576,5.797c1.412,1.815,9.831,9.037,10.788,9.854l0.787,0.676l0.964-0.385
			c0.008-0.003,0.724-0.287,1.428-0.45l0.599,0.921l1.277-0.444c0.298-0.104,2.957-1.036,4.399-1.86
			c0.356-0.203,0.745-0.478,1.197-0.795c1.452-1.022,3.646-2.566,6.367-2.826c0.057-0.005,0.112-0.008,0.167-0.008c0,0,0,0,0.001,0
			c1.387,0,2.783,1.78,3.904,3.21c0.693,0.883,1.329,1.695,2.047,2.209c-0.048,0.01-0.097,0.02-0.145,0.029
			c-0.642,0.129-1.26,0.254-1.83,0.355c-0.208,0.037-0.431,0.055-0.666,0.055c-1.284,0-2.735-0.55-3.901-0.992
			c-1.043-0.395-1.866-0.707-2.65-0.707c-0.464,0-0.883,0.11-1.245,0.328c-0.387,0.232-1.419,0.939-2.749,6.038l0.09,0.188v0.222
			c0,0.726-0.519,1.591-2.04,1.591c-0.141,0-0.363-0.007-0.519-0.021c-2.589-0.235-4.589-3.614-5.125-4.892l-0.181-0.394
			l-0.337-0.273c-0.143-0.119-3.547-2.947-7.012-5.45c-3.455-2.495-9.791-7.101-9.791-7.102l-2.598-1.889l-0.147,3.208
			c-0.008,0.178-0.194,4.404,0.202,7.77c0.469,3.984,9.85,17.761,12.86,21.44c1.892,2.312,3.346,7.732,4.17,11.716
			c-0.429-0.241-0.85-0.477-1.225-0.686c-1.889-1.05-6.865-1.942-7.844-2.111l-2.736-0.471l0.786,2.663
			c0.069,0.234,6.909,23.423,7.47,25.666c0.504,2.018,3.156,4.264,6.846,7.217c1.022,0.818,1.988,1.59,2.442,2.045
			c0.238,0.238,0.286,0.556,0.248,0.871c-0.66-0.167-1.523-0.339-2.637-0.488c-2.171-0.289-4.453-3.074-4.453-4.168
			c0-3.168-3.706-4.763-4.129-4.941L129.927,181h-0.35h-1.307l-0.612-0.555L127.14,180h-0.805c-0.202,0-0.54-0.196-0.971-0.019
			c0.949-0.557,1.731-1.338,2.205-2.096c1.186-1.898-0.063-4.104-1.166-5.999c-0.455-0.782-0.925-1.619-1.201-2.339
			c-1.146-2.981-7.239-10.543-8.018-11.452c-0.763-0.89-3.162-4.898-4.496-7.211l-0.47-0.819l-0.94-0.05
			c-0.246-0.013-0.501-0.019-0.762-0.019c-2.914,0-6.49,0.741-6.641,0.773l-1.01,0.211c-0.383-2.219-0.678-5.799-0.556-11.541
			c0.308-14.478,5.857-27.919,8.227-33.659c0.624-1.511,0.904-2.198,1.013-2.66c0.198-0.841,0.469-1.993-5.326-10.091
			c-2.584-3.611-5.614-7.508-6.148-8.042c-0.772-0.772-1.704-1.054-2.454-1.281c-0.383-0.116-0.745-0.225-1.068-0.387
			c-0.003-0.002-0.006-0.003-0.009-0.005c-0.013-0.136-0.007-0.373-0.002-0.541c0.003-0.134,0.007-0.27,0.007-0.405
			C96.548,81.866,96.549,80.976,93.106,76.898 M124.668,180.125c-0.472,0.314-1.005,0.792-1.566,1.516
			c-0.159,0.062-0.668,0.209-1.91,0.209c-0.825,0-1.744-0.064-2.654-0.16c0.135-0.019,0.269-0.033,0.402-0.042
			C120.767,181.527,122.915,180.992,124.668,180.125 M63.135,36.667c-2.112,0-4.993,0.96-4.993,2.112s1.92,3.072,1.92,3.072
			l-0.384,4.609c0,0-1.707-0.512-2.902-0.512c-0.597,0-1.067,0.128-1.131,0.512c-0.384,2.304,3.264,3.265,3.264,3.265
			s-3.293,0.192-3.293,1.344s1.18,2.304,1.18,2.304s-0.96,1.344-0.384,2.304c0.576,0.96,2.496,0.96,2.496,0.96
			s-1.344,0.768-1.344,1.728s-0.768,2.304-0.768,2.304s-6.721,8.065-6.721,12.29c0,4.225,6.34,5.528,15.554,5.761
			c0.438,0.011,0.865,0.017,1.277,0.017c20.41,0,9.062-13.301,7.556-14.995c-1.536-1.728-3.073-4.609-3.073-4.609
			s6.913,5.377,9.218,10.177c2.304,4.801,3.072,8.065,3.072,8.065s-1.344,2.688,0,2.88c0.031,0.004,0.065,0.007,0.1,0.007
			c1.491,0,6.621-3.847,6.621-3.847s4.417,4.993,4.417,5.953s-0.192,1.92,0.96,2.496s2.304,0.576,3.073,1.344
			c0.768,0.768,11.466,14.594,11.014,16.515c-0.452,1.92-8.901,18.627-9.285,36.678c-0.334,15.711,2.386,16.729,3.097,16.729
			c0.106,0,0.167-0.023,0.167-0.023l0.384-3.649c0,0,3.518-0.736,6.287-0.736c0.231,0,0.456,0.005,0.674,0.016
			c0,0,3.529,6.121,4.681,7.465c1.152,1.344,6.757,8.437,7.717,10.934c0.96,2.496,3.474,5.179,2.514,6.715
			c-0.96,1.536-4.384,2.877-7.276,3.069c-2.892,0.192-6.728,2.495-4.616,2.879c1.315,0.239,4.493,0.776,6.982,0.776
			c1.508,0,2.763-0.197,3.198-0.777c1.152-1.536,1.945-1.341,1.945-1.341l1.129,1.539h2.112c0,0,3.073,1.101,3.073,3.213
			s3.073,5.399,5.953,5.783c2.88,0.384,3.841,0.875,3.841,0.875s1.728-2.539,0-4.267s-8.257-6.166-8.833-8.47
			c-0.576-2.304-7.489-25.742-7.489-25.742s5.569,0.955,7.297,1.915s4.417,2.494,4.417,2.494s-1.728-11.907-5.185-16.132
			c-3.457-4.225-12.098-17.283-12.482-20.548c-0.384-3.264-0.192-7.489-0.192-7.489s6.337,4.609,9.793,7.105
			c3.457,2.496,6.913,5.377,6.913,5.377s2.304,5.569,6.529,5.953c0.211,0.019,0.412,0.028,0.603,0.028
			c3.622,0,3.622-3.293,3.622-3.293s1.152-4.417,2.112-4.993c0.094-0.056,0.214-0.081,0.356-0.081c1.172,0,3.889,1.699,6.552,1.699
			c0.324,0,0.646-0.025,0.966-0.081c2.243-0.396,5.211-1.154,7.471-1.154c1.03,0,1.913,0.157,2.514,0.578
			c0.271,0.19,0.528,0.273,0.763,0.273c1.429,0,2.092-3.043,0.773-3.537c-0.394-0.148-1.004-0.207-1.72-0.207
			c-2.077,0-5.06,0.498-6.345,0.783c-0.048,0.011-0.097,0.016-0.146,0.016c-1.663,0-3.869-5.984-7.587-5.985
			c-0.11,0-0.22,0.005-0.332,0.016c-4.033,0.384-6.913,3.072-8.257,3.841s-4.109,1.728-4.109,1.728s-0.395-0.607-1.157-0.607
			c-0.095,0-0.196,0.009-0.303,0.031c-0.96,0.192-1.92,0.576-1.92,0.576s-9.218-7.873-10.562-9.601s-3.577-5.569-3.577-5.569
			s0.072-0.192,0.072-1.152s0-0.96,0-0.96l2.281-1.466c0,0-4.804-4.295-6.849-6.215c-2.044-1.92-4.475-4.033-4.475-4.033
			l-0.351,6.145c0,0-8.817-12.098-11.889-16.13c-3.072-4.033-9.017-9.602-9.017-9.602s1.156-1.92,0.004-3.072
			c-0.384-0.384-0.703-0.512-0.959-0.512c-0.512,0-0.767,0.512-0.767,0.512s-8.448-8.257-10.753-10.178
			c-2.304-1.92-6.528-4.993-6.528-4.993s0.192-2.112,0-3.649c-0.192-1.536-0.96-4.609-1.728-4.609c-0.768,0-3.072,1.152-3.072,1.152
			l-1.152-6.529c0,0,2.112-1.152,2.112-3.265S65.248,36.667,63.135,36.667L63.135,36.667z"/>
	</g>
	<g>
		<path fill="#B3B3B3" d="M130.286,39.509c7.412,0,17.292,3.087,24.376,15.332c9.445,16.324-4.953,38.668-7.241,41.993
			c-1.084,1.576-4.985,3.075-10.062,3.075c-5.634,0-12.715-1.847-18.992-7.484c-11.934-10.717-8.265-33.133-8.265-33.133
			c0.273-2.354,1.891-4.483,0.634-4.483c-0.144,0-0.326,0.028-0.552,0.087c-0.133,0.035-0.272,0.051-0.416,0.051
			c-1.938,0-4.648-2.961-4.46-2.961c0.027,0,0.115,0.062,0.273,0.203c0.143,0.127,0.39,0.183,0.712,0.183
			c2.344,0,8.646-2.976,7.516-2.976c-0.166,0-0.491,0.064-1.011,0.21c-0.267,0.075-0.542,0.11-0.822,0.11
			c-3.854,0-8.667-6.652-8.038-6.652c0.105,0,0.36,0.184,0.796,0.614c0.784,0.774,1.906,1.084,3.253,1.084
			c4.224,0,10.668-3.054,15.908-4.451C125.623,39.851,127.817,39.509,130.286,39.509 M130,36.629v2.88V36.629
			c-2,0-4.781,0.311-6.989,0.9c-1.948,0.519-3.954,1.246-5.963,1.948c-3.383,1.183-6.846,2.406-9.095,2.406
			c-0.717,0-1.087-0.131-1.212-0.255c-0.708-0.699-1.559-1.444-2.81-1.444c-1.046,0-2.015,0.561-2.537,1.464
			c-0.591,1.023-0.518,2.181,0.21,3.443c0.405,0.701,1.628,2.406,3.326,4.013l-1.281-0.002l-0.841,1.444
			c-0.526,0.908-0.52,2.004,0.014,2.931c0.342,0.593,2.339,2.862,4.742,3.866c-0.132,0.481-0.247,1.002-0.314,1.548
			c-0.263,1.662-3.554,24.229,9.193,35.676c7.966,7.154,16.524,8.222,20.917,8.222c5.748,0,10.628-1.697,12.435-4.322
			c1.859-2.702,17.716-26.922,7.218-45.068C148.571,38.808,137,36.629,130,36.629L130,36.629z"/>
	</g>
	<g>
		<path fill="#B3B3B3" d="M63.135,36.667c2.113,0,6.721,0.192,6.721,2.304s-2.112,3.265-2.112,3.265l1.152,6.529
			c0,0,2.304-1.152,3.073-1.152c0.768,0,1.536,3.073,1.728,4.609c0.192,1.536,0,3.649,0,3.649s4.224,3.072,6.529,4.993
			c2.304,1.92,10.753,10.178,10.753,10.178s0.256-0.512,0.767-0.512c0.256,0,0.576,0.128,0.96,0.512
			c1.152,1.152-0.002,3.072-0.002,3.072s5.948,5.569,9.021,9.602c3.073,4.033,11.897,16.13,11.897,16.13l0.366-6.145
			c0,0,2.46,2.112,4.505,4.033c2.045,1.92,6.789,6.215,6.789,6.215L123,105.413c0,0,0,0,0,0.96s-0.072,1.152-0.072,1.152
			s2.172,3.841,3.517,5.569s10.592,9.601,10.592,9.601s0.975-0.384,1.935-0.576c0.107-0.021,0.215-0.031,0.311-0.031
			c0.762,0,1.161,0.607,1.161,0.607s2.766-0.96,4.111-1.728s4.226-3.456,8.258-3.841c0.112-0.011,0.223-0.016,0.333-0.016
			c3.718,0,5.924,5.985,7.588,5.985c0.049,0,0.098-0.005,0.146-0.016c1.285-0.286,4.267-0.783,6.345-0.783
			c0.717,0,1.326,0.059,1.72,0.207c1.319,0.495,0.656,3.537-0.773,3.537c-0.235,0-0.492-0.083-0.763-0.273
			c-0.601-0.421-1.484-0.578-2.514-0.578c-2.261,0-5.229,0.758-7.471,1.154c-0.319,0.056-0.642,0.081-0.966,0.081
			c-2.663,0-5.38-1.699-6.551-1.699c-0.142,0-0.262,0.025-0.356,0.081c-0.96,0.576-2.112,4.993-2.112,4.993s0,3.293-3.622,3.293
			c-0.19,0-0.391-0.009-0.603-0.028c-4.225-0.384-6.529-5.953-6.529-5.953s-3.457-2.88-6.913-5.377
			c-3.457-2.496-9.793-7.105-9.793-7.105s-0.192,4.225,0.192,7.489c0.384,3.265,9.025,16.323,12.482,20.547
			c3.457,4.225,5.185,16.131,5.185,16.131s-2.688-1.535-4.417-2.495s-7.297-1.918-7.297-1.918s6.913,23.432,7.489,25.736
			c0.576,2.304,7.105,6.73,8.833,8.458s0,4.243,0,4.243s-0.96-0.54-3.841-0.924c-2.88-0.384-5.953-3.573-5.953-5.685
			S129.577,183,129.577,183h-2.112l-1.129-1.539c0,0-0.793-0.097-1.945,1.439c-0.435,0.58-1.69,0.728-3.198,0.728
			c-2.489,0-5.667-0.561-6.982-0.8c-2.112-0.384,1.724-2.699,4.616-2.891c2.893-0.192,6.316-1.539,7.276-3.076
			c0.96-1.536-1.554-4.222-2.514-6.718c-0.96-2.496-6.565-9.591-7.717-10.935c-1.152-1.344-4.681-7.466-4.681-7.466
			c-0.218-0.011-0.443-0.017-0.674-0.017c-2.769,0-6.287,0.736-6.287,0.736l-0.384,3.648c0,0-0.061,0.023-0.167,0.023
			c-0.711,0-3.431-1.019-3.097-16.729c0.384-18.051,8.833-34.757,9.285-36.678c0.452-1.92-10.246-15.746-11.014-16.515
			c-0.768-0.768-1.92-0.768-3.073-1.344s-0.96-1.536-0.96-2.496s-4.417-5.953-4.417-5.953s-5.13,3.847-6.621,3.847
			c-0.035,0-0.069-0.002-0.1-0.007c-1.344-0.192,0-2.88,0-2.88s-0.768-3.265-3.072-8.065c-2.304-4.801-9.218-10.177-9.218-10.177
			s1.536,2.88,3.073,4.609c1.506,1.694,12.854,14.995-7.556,14.995c-0.412,0-0.839-0.005-1.277-0.017
			c-9.215-0.233-15.554-1.536-15.554-5.761c0-4.225,6.721-12.29,6.721-12.29s0.768-1.344,0.768-2.304s1.344-1.728,1.344-1.728
			s-1.92,0-2.496-0.96c-0.576-0.96,0.384-2.304,0.384-2.304s-1.18-1.152-1.18-2.304s3.293-1.344,3.293-1.344
			s-3.648-0.96-3.264-3.265c0.064-0.384,0.533-0.512,1.131-0.512c1.195,0,2.902,0.512,2.902,0.512l0.384-4.609
			c0,0-1.92-1.92-1.92-3.072S61.023,36.667,63.135,36.667 M63.135,33.786c-3.044,0-7.873,1.355-7.873,4.993
			c0,1.492,0.926,2.981,1.827,4.078l-0.018,0.217c-0.099-0.004-0.197-0.006-0.293-0.006c-3.318,0-3.891,2.431-3.972,2.919
			c-0.167,1.004-0.01,2.098,0.532,3.116c-0.499,0.737-0.599,1.486-0.599,1.967c0,1.035,0.349,1.96,0.768,2.698
			c-0.265,1.081-0.221,2.291,0.439,3.392c0.215,0.359,0.471,0.664,0.752,0.922c-0.005,0.072-0.008,0.145-0.01,0.219
			c-0.034,0.173-0.175,0.514-0.295,0.761c-1.578,1.924-7.195,9.11-7.195,13.899c0,8.177,12.402,8.49,18.362,8.64
			c0.463,0.012,0.915,0.017,1.35,0.017c7.078,0,11.569-1.521,13.667-4.641c0.022,0.071,0.043,0.14,0.062,0.204
			c-0.425,1.192-0.7,2.752-0.001,4.085c0.527,1.007,1.489,1.678,2.638,1.843c0.166,0.024,0.336,0.036,0.508,0.036
			c0.523,0,1.969,0,6.147-2.844c0.897,1.091,1.652,2.076,2,2.619c-0.011,1.088,0.134,3.308,2.562,4.522
			c0.674,0.337,1.295,0.525,1.794,0.676c0.194,0.059,0.449,0.136,0.582,0.19c1.647,1.879,8.74,11.388,10.012,14.233
			c-0.161,0.407-0.391,0.965-0.604,1.48c-2.256,5.464-8.249,19.979-8.575,35.319c-0.284,13.376,1.605,16.887,3.051,18.364
			c0.825,0.843,1.864,1.307,2.926,1.307c0.512,0,0.915-0.109,1.163-0.2l1.681-0.619l0.188-1.782l0.156-1.485
			c0.808-0.12,1.761-0.236,2.678-0.29c1.192,2.024,3.19,5.337,4.14,6.445c1.754,2.046,6.553,8.371,7.216,10.093
			c0.409,1.063,0.999,2.078,1.519,2.972c0.262,0.45,0.615,1.057,0.833,1.512c-0.837,0.535-2.677,1.263-4.616,1.392
			c-1.96,0.13-7.711,1.648-7.909,5.139c-0.082,1.433,0.805,3.054,2.969,3.448c2.063,0.375,5.039,0.822,7.497,0.822
			c1.565,0,3.434-0.395,4.758-1.419l0.173-0.039h1.342h1.425c0.375,1,0.739,0.752,0.883,0.944c0.131,3.664,4.405,8.147,8.45,8.687
			c1.776,0.237,2.627,0.586,2.859,0.675l2.323,1.625l1.413-2.492c1.486-2.162,2.014-5.552-0.337-7.903
			c-0.635-0.635-1.6-1.403-2.822-2.381c-1.543-1.234-4.731-3.783-5.279-4.831c-0.528-2.039-4.106-14.236-6.125-21.1
			c0.822,0.221,1.468,0.432,1.765,0.597c1.717,0.954,4.387,2.479,4.387,2.479l5.127,2.928l-0.848-5.843
			c-0.189-1.3-1.954-12.834-5.806-17.541c-3.858-4.715-11.469-16.715-11.852-19.073c-0.055-0.467-0.097-0.959-0.129-1.456
			c1.782,1.294,3.736,2.711,5.185,3.757c2.584,1.866,5.196,3.975,6.259,4.846c0.924,1.878,3.707,6.572,8.608,7.017
			c0.293,0.027,0.583,0.04,0.863,0.04c3.452,0,5.049-1.967,5.693-3.139c0.553-1.007,0.731-1.979,0.786-2.567
			c0.21-0.766,0.47-1.573,0.711-2.221c1.43,0.542,3.364,1.26,5.452,1.26c0.502,0,0.995-0.042,1.467-0.125
			c0.604-0.107,1.26-0.238,1.94-0.375c1.709-0.344,3.646-0.735,5.031-0.735c0.579,0,0.844,0.071,0.916,0.094
			c0.728,0.495,1.543,0.756,2.361,0.756c2.083,0,3.84-1.668,4.272-4.055c0.419-2.311-0.581-4.344-2.488-5.059
			c-0.71-0.266-1.578-0.391-2.732-0.391c-1.964,0-4.369,0.358-5.872,0.633c-0.218-0.261-0.468-0.58-0.676-0.844
			c-1.553-1.981-3.9-4.974-7.53-4.974c-0.2,0-0.401,0.009-0.605,0.029c-3.938,0.375-6.845,2.422-8.583,3.645
			c-0.326,0.23-0.663,0.467-0.831,0.562c-0.514,0.293-1.448,0.687-2.311,1.022c-0.455-0.175-0.966-0.28-1.526-0.28
			c-0.288,0-0.58,0.029-0.868,0.087c-0.24,0.048-0.477,0.104-0.704,0.164c-4.017-3.463-8.288-7.295-8.94-8.133
			c-0.764-0.982-1.936-2.951-2.683-4.259c0.003-0.039,0.006-0.077,0.008-0.116l0.915-0.621l3.073-2.085l-2.783-2.458
			c-0.048-0.043-4.854-4.288-6.844-6.156c-2.067-1.942-4.498-4.031-4.601-4.119l-4.406-3.783l-0.236,3.957
			c-2.611-3.557-5.633-7.654-7.206-9.72c-2.294-3.011-6.007-6.735-7.994-8.667c0.246-1.488-0.058-3.077-1.279-4.298
			c-1.12-1.12-2.248-1.356-2.996-1.356c-0.041,0-0.081,0.001-0.121,0.002c-2.512-2.44-7.746-7.491-9.556-9
			c-1.575-1.313-3.959-3.103-5.414-4.18c0.019-0.792,0.007-1.748-0.101-2.606c-0.406-3.253-1.532-7.132-4.586-7.132
			c-0.142,0-0.401,0-0.843,0.092l-0.252-1.428c0.925-0.96,1.863-2.426,1.863-4.424C72.737,35.531,69.506,33.786,63.135,33.786
			L63.135,33.786z"/>
	</g>
	<path fill="none" stroke="#00658F" stroke-width="2" stroke-miterlimit="10" d="M111.191,151.74c0,0,3.529,6.121,4.681,7.465
		c1.152,1.344,6.757,8.437,7.717,10.934c0.96,2.496,3.475,5.179,2.514,6.715c-0.96,1.536-4.384,2.877-7.276,3.069
		c-2.892,0.192-6.728,2.495-4.616,2.879c2.112,0.384,9.028,1.535,10.18-0.001c1.152-1.536,1.945-1.341,1.945-1.341l1.129,1.539
		h2.112c0,0,3.072,1.101,3.072,3.213s3.072,5.399,5.953,5.783s3.841,0.875,3.841,0.875s1.728-2.539,0-4.267
		c-1.728-1.728-8.257-6.166-8.833-8.471c-0.576-2.304-7.489-25.743-7.489-25.743s5.569,0.955,7.297,1.915s4.417,2.494,4.417,2.494
		s-1.728-11.907-5.185-16.132s-12.098-17.283-12.482-20.548c-0.384-3.264-0.192-7.489-0.192-7.489s6.337,4.609,9.793,7.105
		c3.457,2.496,6.913,5.377,6.913,5.377s2.304,5.569,6.529,5.953c4.225,0.384,4.225-3.265,4.225-3.265s1.152-4.417,2.112-4.993
		s4.609,2.112,7.873,1.536s8.065-1.92,9.986-0.576c1.92,1.344,3.072-2.688,1.536-3.264c-1.536-0.576-6.337,0.192-8.065,0.576
		c-1.728,0.384-4.033-6.337-8.065-5.953c-4.033,0.384-6.913,3.072-8.257,3.841c-1.344,0.768-4.109,1.728-4.109,1.728
		s-0.5-0.768-1.46-0.576s-1.92,0.576-1.92,0.576s-9.217-7.873-10.562-9.601c-1.344-1.728-3.577-5.569-3.577-5.569
		s0.072-0.192,0.072-1.152s0-0.96,0-0.96l2.281-1.466c0,0-4.804-4.295-6.849-6.215c-2.045-1.92-4.475-4.033-4.475-4.033
		l-0.351,6.145c0,0-8.817-12.098-11.889-16.13c-3.072-4.033-9.017-9.601-9.017-9.601s1.156-1.92,0.004-3.072
		c-1.152-1.152-1.726,0-1.726,0s-8.448-8.257-10.753-10.178c-2.304-1.92-6.528-4.993-6.528-4.993s0.192-2.112,0-3.649
		c-0.192-1.536-0.96-4.609-1.728-4.609c-0.768,0-3.072,1.152-3.072,1.152l-1.152-6.529c0,0,2.112-1.152,2.112-3.264
		s-4.609-2.304-6.721-2.304c-2.112,0-4.993,0.96-4.993,2.112c0,1.152,1.92,3.072,1.92,3.072l-0.384,4.609c0,0-3.841-1.152-4.033,0
		c-0.384,2.304,3.264,3.264,3.264,3.264s-3.293,0.192-3.293,1.344c0,1.152,1.18,2.304,1.18,2.304s-0.96,1.344-0.384,2.304
		c0.576,0.96,2.496,0.96,2.496,0.96s-1.344,0.768-1.344,1.728c0,0.96-0.768,2.304-0.768,2.304s-6.721,8.065-6.721,12.29
		s6.34,5.528,15.554,5.761c22.146,0.559,10.37-13.25,8.833-14.978s-3.072-4.609-3.072-4.609s6.913,5.377,9.217,10.178
		c2.304,4.801,3.072,8.065,3.072,8.065s-1.344,2.688,0,2.88c1.344,0.192,6.721-3.841,6.721-3.841s4.417,4.993,4.417,5.953
		s-0.192,1.92,0.96,2.496s2.304,0.576,3.072,1.344c0.768,0.768,11.466,14.594,11.014,16.514s-8.901,18.627-9.285,36.678
		s3.264,16.707,3.264,16.707l0.384-3.649C104.23,152.46,108.358,151.596,111.191,151.74z"/>
	<path fill="#00658F" d="M124.601,57.641c0,0-0.863,5.322,3.729,7.176c4.592,1.854,7.529-0.52,11.781,1.197
		c4.252,1.717,4.173,3.136,4.173,3.136s-0.353-4.758-3.925-6.2c-3.572-1.442-9.076-0.302-11.627-1.332
		C126.181,60.587,124.601,57.641,124.601,57.641z"/>
	<circle fill="#00658F" cx="135.557" cy="71.889" r="5.616"/>
	<path fill="none" stroke="#00658F" stroke-width="2.3043" stroke-miterlimit="10" d="M110.102,59.291
		c0,0-3.669,22.416,8.265,33.133s26.767,7.735,29.054,4.41c2.288-3.325,16.685-25.668,7.241-41.993
		c-9.445-16.324-23.856-16.372-30.766-14.529c-6.911,1.843-15.916,6.567-19.16,3.366c-3.244-3.201,3.503,7.211,8.064,5.927
		c4.561-1.284-5.876,3.774-7.217,2.582s2.404,3.28,4.602,2.707S110.407,56.668,110.102,59.291z"/>
	<g>
		<g>
			<circle fill="#FFFFFF" cx="178.797" cy="99.141" r="5.437"/>
			<path fill="#00658F" d="M184,99.156c0,0,0.178,0.133,0.156,0.382c-0.043,0.253,0.122,0.607,0.004,1.097
				c-0.045,0.241-0.016,0.533-0.073,0.841c-0.09,0.288-0.155,0.615-0.254,0.981c-0.132,0.344-0.309,0.697-0.507,1.093
				c-0.243,0.35-0.532,0.715-0.875,1.068c-0.746,0.61-1.759,1.14-2.901,1.157l-0.424,0.011l-0.213-0.003l-0.106-0.002l-0.133-0.007
				l-0.011-0.002l-0.021-0.005l-0.043-0.01c-0.23-0.063-0.463-0.126-0.698-0.19c-0.124-0.036-0.223-0.057-0.367-0.119l-0.434-0.201
				c-0.28-0.143-0.575-0.266-0.813-0.439c-0.961-0.672-1.698-1.519-2.379-2.418c-0.617-0.953-1.084-2.022-1.336-3.247
				c-0.01-0.725-0.158-1.048-0.002-1.825c0.085-0.725,0.362-1.293,0.64-1.885c0.672-1.107,1.633-2.045,2.781-2.622
				c1.145-0.53,2.454-0.781,3.573-0.548c0.38,0.027,1.063,0.245,1.612,0.472c0.557,0.224,0.92,0.581,1.32,0.876
				c0.338,0.369,0.632,0.739,0.87,1.099c0.197,0.401,0.382,0.759,0.514,1.104c0.099,0.368,0.187,0.697,0.277,0.986
				c0.055,0.305,0.07,0.589,0.114,0.829c0.115,0.478-0.146,0.869-0.107,1.122c0.017,0.256-0.163,0.392-0.163,0.392V99.156z
				 M184,99.141c0,0,0.028-0.129-0.006-0.37c-0.058-0.235-0.02-0.605-0.255-1.003c-0.105-0.2-0.196-0.424-0.357-0.636
				c-0.178-0.205-0.375-0.41-0.586-0.613c-0.235-0.187-0.52-0.34-0.777-0.508c-0.283-0.145-0.603-0.241-0.882-0.376
				c-0.318-0.052-0.638-0.206-0.905-0.235c-0.276-0.019-0.429-0.139-0.975-0.129c-0.701-0.08-1.349,0.097-2.054,0.273
				c-0.681,0.253-1.324,0.696-1.874,1.296c-0.215,0.333-0.517,0.663-0.665,0.987c-0.255,0.217-0.364,0.985-0.517,1.313
				c-0.165,0.911-0.04,1.939,0.484,2.764c0.541,0.808,1.407,1.341,2.275,1.5c0.211,0.044,0.409,0.018,0.592,0.036l0.265,0.016
				c0.089,0.005,0.237-0.215,0.351-0.217c0.243-0.016,0.484-0.24,0.722-0.24h0.044h0.022h0.011c0.03,0-0.223,0.179-0.112,0.184
				l0.068,0.076l0.134,0.01l0.262-0.035c0.7-0.11,1.283-0.355,1.909-0.543c0.273-0.151,0.594-0.247,0.872-0.401
				c0.256-0.172,0.54-0.327,0.776-0.516c0.21-0.205,0.412-0.411,0.59-0.617c0.159-0.208,0.258-0.424,0.362-0.623
				c0.233-0.387,0.172-0.793,0.224-1.028c0.029-0.248-0.001-0.38-0.001-0.38V99.141z"/>
		</g>
		<g>
			<circle fill="#FFFFFF" cx="163.243" cy="108.359" r="5.437"/>
			<path fill="#00658F" d="M169,108.373c0,0-0.099,0.133-0.121,0.382c-0.044,0.253-0.017,0.607-0.134,1.097
				c-0.045,0.242-0.086,0.533-0.142,0.841c-0.09,0.288-0.189,0.615-0.289,0.981c-0.132,0.344-0.327,0.697-0.524,1.093
				c-0.242,0.351-0.54,0.715-0.884,1.068c-0.746,0.61-1.763,1.14-2.906,1.157l-0.426,0.011l-0.214-0.003l-0.107-0.002l-0.134-0.007
				l-0.011-0.002l-0.022-0.005l-0.043-0.01c-0.23-0.063-0.463-0.126-0.698-0.19c-0.124-0.036-0.223-0.057-0.366-0.119l-0.435-0.201
				c-0.28-0.143-0.575-0.266-0.813-0.439c-0.961-0.672-1.698-1.519-2.379-2.418c-0.275-0.494-0.611-0.965-0.803-1.522
				c-0.121-0.268-0.259-0.539-0.305-0.835l-0.115-0.44l-0.057-0.224l-0.028-0.113l-0.014-0.057l-0.007-0.028l-0.003-0.014
				c0-0.04-0.006,0.07,0-0.094c-0.018-0.566-0.16-1.004-0.006-1.746c0.085-0.725,0.362-1.293,0.64-1.885
				c0.672-1.107,1.633-2.045,2.781-2.622c1.145-0.53,2.454-0.781,3.573-0.548c0.38,0.027,1.063,0.245,1.612,0.472
				c0.557,0.224,0.921,0.582,1.321,0.876c0.338,0.369,0.632,0.739,0.87,1.099c0.197,0.401,0.382,0.759,0.514,1.104
				c0.099,0.368,0.187,0.697,0.277,0.986c0.055,0.305,0.07,0.589,0.114,0.829c0.115,0.478,0.132,0.87,0.17,1.122
				c0.017,0.256,0.114,0.392,0.114,0.392V108.373z M169,108.359c0,0-0.25-0.129-0.283-0.37c-0.058-0.235-0.159-0.605-0.394-1.003
				c-0.105-0.2-0.265-0.424-0.426-0.636c-0.178-0.205-0.41-0.41-0.621-0.613c-0.235-0.187-0.537-0.34-0.794-0.508
				c-0.283-0.145-0.612-0.241-0.89-0.376c-0.318-0.052-0.642-0.206-0.909-0.235c-0.276-0.019-0.431-0.139-0.978-0.129
				c-0.701-0.08-1.351,0.097-2.055,0.273c-0.681,0.253-1.324,0.696-1.874,1.296c-0.215,0.333-0.517,0.663-0.665,0.987
				c-0.256,0.253-0.36,0.905-0.521,1.393l-0.063,0.621c-0.037,0.243,0.012,0.475,0.049,0.713c0.041,0.492,0.284,0.919,0.501,1.35
				c0.541,0.808,1.407,1.341,2.275,1.5c0.211,0.044,0.41,0.018,0.592,0.036l0.265,0.016c0.089,0.005,0.237,0.176,0.351,0.174
				c0.243-0.016,0.484,0.151,0.722,0.151h0.044h0.022h0.011c0.031,0-0.223-0.212-0.112-0.208l0.068-0.119l0.134-0.088l0.262-0.083
				c0.7-0.11,1.283-0.379,1.909-0.568c0.274-0.151,0.594-0.259,0.872-0.413c0.256-0.172,0.54-0.334,0.775-0.522
				c0.21-0.205,0.413-0.414,0.59-0.62c0.159-0.208,0.258-0.426,0.362-0.625c0.232-0.387,0.449-0.794,0.501-1.029
				c0.029-0.248,0.276-0.381,0.276-0.381V108.359z"/>
		</g>
		<g>
			<circle fill="#FFFFFF" cx="178.797" cy="117" r="5.437"/>
			<path fill="#00658F" d="M184,117.014c0,0,0.178,0.133,0.156,0.382c-0.043,0.253,0.122,0.607,0.004,1.097
				c-0.045,0.241-0.016,0.533-0.073,0.841c-0.09,0.288-0.155,0.615-0.254,0.981c-0.132,0.344-0.309,0.697-0.507,1.093
				c-0.243,0.35-0.532,0.715-0.875,1.068c-0.746,0.61-1.759,1.14-2.901,1.157l-0.424,0.011l-0.213-0.003l-0.106-0.002l-0.133-0.007
				l-0.011-0.002l-0.021-0.005l-0.043-0.01c-0.23-0.063-0.463-0.126-0.698-0.19c-0.124-0.036-0.223-0.057-0.367-0.119l-0.434-0.201
				c-0.28-0.143-0.575-0.266-0.813-0.439c-0.961-0.672-1.698-1.519-2.379-2.418c-0.276-0.494-0.611-0.965-0.803-1.522
				c-0.121-0.268-0.259-0.539-0.305-0.835l-0.115-0.44l-0.057-0.224l-0.028-0.113l-0.014-0.057l-0.007-0.028l-0.003-0.014
				c0.001-0.04-0.006,0.07,0-0.094c-0.018-0.566-0.16-1.004-0.006-1.746c0.085-0.725,0.362-1.293,0.64-1.885
				c0.672-1.107,1.633-2.045,2.781-2.622c1.145-0.53,2.454-0.781,3.573-0.548c0.38,0.027,1.063,0.245,1.612,0.472
				c0.557,0.224,0.92,0.581,1.32,0.876c0.338,0.369,0.632,0.739,0.87,1.099c0.197,0.401,0.382,0.759,0.514,1.104
				c0.099,0.368,0.187,0.697,0.277,0.986c0.055,0.305,0.07,0.589,0.114,0.829c0.115,0.478-0.146,0.869-0.107,1.122
				C184.18,116.864,184,117,184,117V117.014z M184,117c0,0,0.028-0.129-0.006-0.37c-0.058-0.235-0.02-0.605-0.255-1.003
				c-0.105-0.2-0.196-0.424-0.357-0.636c-0.178-0.205-0.375-0.41-0.586-0.613c-0.235-0.187-0.52-0.34-0.777-0.508
				c-0.283-0.145-0.603-0.241-0.882-0.376c-0.318-0.052-0.638-0.206-0.905-0.235c-0.276-0.019-0.429-0.139-0.975-0.129
				c-0.701-0.08-1.349,0.097-2.054,0.273c-0.681,0.253-1.324,0.696-1.874,1.296c-0.215,0.333-0.517,0.663-0.665,0.987
				c-0.256,0.253-0.36,0.905-0.521,1.393l-0.063,0.621c-0.036,0.244,0.012,0.475,0.049,0.713c0.041,0.492,0.284,0.919,0.501,1.35
				c0.541,0.808,1.407,1.341,2.275,1.5c0.211,0.044,0.409,0.018,0.592,0.036l0.265,0.016c0.089,0.005,0.237-0.144,0.351-0.147
				c0.243-0.016,0.484-0.169,0.722-0.169h0.044h0.022h0.011c0.03,0-0.223,0.108-0.112,0.113l0.068,0.041l0.134-0.008l0.262-0.043
				c0.7-0.11,1.283-0.359,1.909-0.548c0.273-0.151,0.594-0.249,0.872-0.403c0.256-0.172,0.54-0.328,0.776-0.517
				c0.21-0.205,0.412-0.412,0.59-0.618c0.159-0.208,0.258-0.424,0.362-0.624c0.233-0.387,0.172-0.794,0.224-1.028
				c0.029-0.248-0.001-0.38-0.001-0.38V117z"/>
		</g>
	</g>
	<path fill="#00658F" d="M166.513,104.02c0,0,2.51-0.086,3.733-0.794s2.446-2.381,2.446-2.381l2.06,2.51
		c0,0-2.703,0.171-3.411,0.665c-0.708,0.494-2.253,2.746-2.253,2.746L166.513,104.02z"/>
	<path fill="#00658F" d="M173.384,115.951c0,0-1.287-2.157-2.497-2.886c-1.21-0.729-3.266-0.992-3.266-0.992l1.204-3.015
		c0,0,1.455,2.285,2.229,2.666c0.774,0.382,3.493,0.647,3.493,0.647L173.384,115.951z"/>
	<path fill="#00658F" d="M180.637,104.199c0,0-1.221,2.195-1.244,3.608s0.78,3.323,0.78,3.323l-3.212,0.471
		c0,0,1.247-2.405,1.188-3.266c-0.058-0.861-1.192-3.346-1.192-3.346L180.637,104.199z"/>
	<g>
		<path fill="#00658F" d="M121.181,85.879c2.254,0.357,4.528,0.445,6.766,0.338c2.233-0.136,4.45-0.491,6.483-1.273
			c1.015-0.385,1.988-0.856,2.877-1.442l1.369-0.966c0.455-0.334,0.948-0.654,1.366-0.995l1.299-1.008l1.232-1.081
			c0.369-0.38,0.777-0.751,1.095-1.145c0.152-0.195,0.346-0.394,0.46-0.582l0.191-0.278l0.06-0.113l0.031-0.053
			c-0.008,0.013-0.013,0.028-0.014,0.044l2.163,0.148c0.069,0.478,0.104,0.887,0.137,1.327c0.028,0.432,0.049,0.864,0.056,1.296
			c0.017,0.863-0.008,1.728-0.081,2.592c-0.137,1.729-0.512,3.455-1.125,5.12c-0.63,1.653-1.531,3.266-2.821,4.56
			c-0.315,0.329-0.656,0.631-1.009,0.918c-0.357,0.28-0.724,0.552-1.11,0.787c-0.384,0.242-0.779,0.461-1.188,0.649
			c-0.399,0.212-0.828,0.347-1.242,0.515l-0.04,0.016l-0.034,0.008c-0.878,0.201-1.765,0.378-2.671,0.433
			c-0.901,0.084-1.815,0.044-2.715-0.057c-1.804-0.225-3.534-0.874-5.044-1.811c-1.523-0.927-2.802-2.166-3.893-3.509
			C122.704,88.956,121.808,87.468,121.181,85.879z M121.181,85.879c0.873,1.462,1.941,2.788,3.126,3.964
			c1.18,1.18,2.516,2.185,3.967,2.913c1.444,0.747,3.019,1.155,4.599,1.26c0.792,0.039,1.587,0.03,2.374-0.093
			c0.789-0.094,1.564-0.3,2.33-0.522l-0.073,0.024c0.339-0.169,0.703-0.288,1.026-0.483c0.336-0.17,0.656-0.366,0.963-0.578
			c0.311-0.206,0.6-0.442,0.883-0.683c0.279-0.246,0.546-0.503,0.792-0.783c0.99-1.107,1.747-2.431,2.267-3.87
			c0.522-1.442,0.795-2.985,0.959-4.545c0.076-0.781,0.11-1.571,0.106-2.36c-0.001-0.395-0.015-0.789-0.035-1.181
			c-0.023-0.384-0.056-0.799-0.1-1.14l2.163,0.148c-0.232,0.595-0.396,0.759-0.603,1.061c-0.192,0.295-0.413,0.493-0.62,0.738
			c-0.42,0.472-0.874,0.853-1.316,1.269l-1.381,1.116l-1.443,1.027c-0.479,0.361-0.965,0.626-1.45,0.933l-1.486,0.906
			c-1.053,0.601-2.168,1.071-3.311,1.406c-2.293,0.656-4.656,0.854-6.968,0.723C125.635,87.011,123.352,86.594,121.181,85.879z"/>
	</g>
	<circle fill="#FFFFFF" cx="121.719" cy="67.177" r="2.202"/>
</g>
</svg>
